<svg width="245" height="245" viewBox="0 0 245 245" fill="none" xmlns="http://www.w3.org/2000/svg">
<g clip-path="url(#clip0_3_406)">
<path d="M124.388 20.7564L152.125 1.81053C153.863 0.623557 156.25 1.2631 157.162 3.16026L171.71 33.437C172.01 34.0605 172.491 34.5791 173.09 34.925C173.689 35.2709 174.378 35.428 175.068 35.3757L208.562 32.8366C210.661 32.6777 212.408 34.425 212.249 36.5235L209.71 70.0181C209.658 70.7078 209.815 71.3973 210.161 71.9963C210.507 72.5954 211.025 73.0761 211.649 73.3757L241.926 87.9244C243.823 88.836 244.462 91.2228 243.275 92.9606L224.33 120.698C223.939 121.269 223.731 121.945 223.731 122.637C223.731 123.328 223.939 124.004 224.33 124.575L243.275 152.313C244.462 154.051 243.823 156.438 241.926 157.349L211.649 171.898C211.025 172.197 210.507 172.678 210.161 173.277C209.815 173.876 209.658 174.566 209.71 175.255L212.249 208.75C212.408 210.848 210.661 212.596 208.562 212.437L175.068 209.898C174.378 209.845 173.689 210.002 173.09 210.348C172.491 210.694 172.01 211.213 171.71 211.836L157.162 242.113C156.25 244.01 153.863 244.65 152.125 243.463L124.388 224.517C123.817 224.127 123.141 223.918 122.449 223.918C121.758 223.918 121.082 224.127 120.511 224.517L92.7732 243.463C91.0354 244.65 88.6481 244.01 87.737 242.113L73.1883 211.836C72.8888 211.213 72.408 210.694 71.809 210.348C71.2099 210.002 70.5205 209.845 69.8307 209.898L36.3362 212.437C34.2376 212.596 32.4903 210.848 32.6492 208.75L35.1883 175.255C35.2406 174.566 35.0835 173.876 34.7377 173.277C34.3918 172.678 33.8732 172.197 33.2497 171.898L2.97243 157.349C1.07527 156.437 0.435725 154.051 1.6227 152.313L20.5685 124.575C20.9587 124.004 21.1674 123.328 21.1674 122.637C21.1674 121.945 20.9587 121.269 20.5685 120.698L1.62318 92.9601C0.436202 91.2223 1.07575 88.835 2.97291 87.9239L33.2497 73.3752C33.8732 73.0756 34.3918 72.5949 34.7377 71.9959C35.0835 71.3968 35.2406 70.7073 35.1883 70.0176L32.6492 36.5231C32.4903 34.4245 34.2376 32.6772 36.3362 32.8361L69.8307 35.3752C70.5205 35.4275 71.2099 35.2704 71.809 34.9245C72.408 34.5786 72.8888 34.06 73.1883 33.4365L87.737 3.15978C88.6486 1.26263 91.0354 0.62308 92.7732 1.81006L120.511 20.7559C121.082 21.1462 121.758 21.3551 122.449 21.3551C123.141 21.3552 123.817 21.1465 124.388 20.7564V20.7564Z" fill="#FFC639"/>
<path d="M122.449 215.425C173.695 215.425 215.238 173.882 215.238 122.636C215.238 71.3905 173.695 29.8474 122.449 29.8474C71.2031 29.8474 29.6601 71.3905 29.6601 122.636C29.6601 173.882 71.2031 215.425 122.449 215.425Z" fill="#FFE564"/>
</g>
<defs>
<clipPath id="clip0_3_406">
<rect width="244.364" height="244.364" fill="white" transform="translate(0 0.454605)"/>
</clipPath>
</defs>
</svg>
